<mxfile host="Electron" modified="2023-07-29T10:32:02.375Z" agent="Mozilla/5.0 (Macintosh; Intel Mac OS X 10_15_7) AppleWebKit/537.36 (KHTML, like Gecko) draw.io/21.6.5 Chrome/114.0.5735.243 Electron/25.3.1 Safari/537.36" etag="_JLZ3HDdIzRqUSKJXq2l" version="21.6.5" type="device">
  <diagram id="sfGkyqJ-wVHbOri7GWkh" name="Seite-1">
    <mxGraphModel dx="954" dy="612" grid="1" gridSize="10" guides="1" tooltips="1" connect="1" arrows="1" fold="1" page="1" pageScale="1" pageWidth="827" pageHeight="1169" math="0" shadow="0">
      <root>
        <mxCell id="0" />
        <mxCell id="1" parent="0" />
        <mxCell id="nMVIfYfNS6cF1Cbamtte-1" value="" style="rounded=0;whiteSpace=wrap;html=1;imageWidth=200;imageHeight=24;fillColor=#D5E8D4;strokeColor=#82b366;gradientDirection=west;imageAspect=0;" parent="1" vertex="1">
          <mxGeometry x="20" y="40" width="768" height="432" as="geometry" />
        </mxCell>
        <mxCell id="XbCrCJemjWTNa3cK6fTW-1" value="" style="shape=cube;whiteSpace=wrap;html=1;boundedLbl=1;backgroundOutline=1;darkOpacity=0.05;darkOpacity2=0.1;size=42;sketch=1;curveFitting=1;jiggle=2;" parent="1" vertex="1">
          <mxGeometry x="186" y="198" width="456" height="102" as="geometry" />
        </mxCell>
        <mxCell id="XbCrCJemjWTNa3cK6fTW-2" value="" style="ellipse;shape=cloud;whiteSpace=wrap;html=1;" parent="1" vertex="1">
          <mxGeometry x="60" y="320" width="350" height="120" as="geometry" />
        </mxCell>
        <mxCell id="XbCrCJemjWTNa3cK6fTW-4" value="" style="ellipse;shape=cloud;whiteSpace=wrap;html=1;" parent="1" vertex="1">
          <mxGeometry x="360" y="300" width="229" height="160" as="geometry" />
        </mxCell>
        <mxCell id="XbCrCJemjWTNa3cK6fTW-3" value="" style="ellipse;shape=cloud;whiteSpace=wrap;html=1;" parent="1" vertex="1">
          <mxGeometry x="260" y="310" width="229" height="100" as="geometry" />
        </mxCell>
        <mxCell id="XbCrCJemjWTNa3cK6fTW-5" value="" style="ellipse;shape=cloud;whiteSpace=wrap;html=1;" parent="1" vertex="1">
          <mxGeometry x="450" y="310" width="330" height="160" as="geometry" />
        </mxCell>
        <mxCell id="XbCrCJemjWTNa3cK6fTW-13" value="Platform" style="text;html=1;strokeColor=none;fillColor=none;align=center;verticalAlign=middle;whiteSpace=wrap;rounded=0;fontColor=#D5E8D4;fontSize=28;fontFamily=Tahoma;shadow=1;" parent="1" vertex="1">
          <mxGeometry x="230" y="240" width="410" height="60" as="geometry" />
        </mxCell>
        <mxCell id="u2JUOfLsE7gRuMNeDJ11-1" value="" style="rounded=1;whiteSpace=wrap;html=1;glass=0;sketch=1;curveFitting=1;jiggle=2;shadow=1;" parent="1" vertex="1">
          <mxGeometry x="220" y="120" width="120" height="100" as="geometry" />
        </mxCell>
        <mxCell id="u2JUOfLsE7gRuMNeDJ11-2" value="" style="rounded=1;whiteSpace=wrap;html=1;glass=0;sketch=1;curveFitting=1;jiggle=2;shadow=1;" parent="1" vertex="1">
          <mxGeometry x="360" y="120" width="120" height="100" as="geometry" />
        </mxCell>
        <mxCell id="u2JUOfLsE7gRuMNeDJ11-3" value="" style="rounded=1;whiteSpace=wrap;html=1;glass=0;sketch=1;curveFitting=1;jiggle=2;shadow=1;" parent="1" vertex="1">
          <mxGeometry x="500" y="120" width="120" height="100" as="geometry" />
        </mxCell>
        <mxCell id="u2JUOfLsE7gRuMNeDJ11-4" value="" style="shape=image;html=1;verticalLabelPosition=bottom;verticalAlign=top;imageAspect=1;aspect=fixed;image=img/clipart/Gear_128x128.png;" parent="1" vertex="1">
          <mxGeometry x="240" y="130" width="52" height="61" as="geometry" />
        </mxCell>
        <mxCell id="u2JUOfLsE7gRuMNeDJ11-5" value="" style="shape=image;html=1;verticalLabelPosition=bottom;verticalAlign=top;imageAspect=1;aspect=fixed;image=img/clipart/Gear_128x128.png;" parent="1" vertex="1">
          <mxGeometry x="280" y="150" width="52" height="61" as="geometry" />
        </mxCell>
        <mxCell id="u2JUOfLsE7gRuMNeDJ11-7" value="" style="image;html=1;image=img/lib/clip_art/finance/Shopping_Cart_128x128.png;" parent="1" vertex="1">
          <mxGeometry x="380" y="131" width="80" height="80" as="geometry" />
        </mxCell>
        <mxCell id="u2JUOfLsE7gRuMNeDJ11-8" value="" style="image;html=1;image=img/lib/clip_art/general/Tire_128x128.png;" parent="1" vertex="1">
          <mxGeometry x="520" y="131" width="80" height="80" as="geometry" />
        </mxCell>
        <mxCell id="lN6Z3f6UjfHGIC5_T-Hi-2" value="" style="image;aspect=fixed;perimeter=ellipsePerimeter;html=1;align=center;shadow=0;dashed=0;fontColor=#4277BB;labelBackgroundColor=default;fontSize=12;spacingTop=3;image=img/lib/ibm/social/messaging.svg;" parent="1" vertex="1">
          <mxGeometry x="332" y="130" width="40" height="40" as="geometry" />
        </mxCell>
        <mxCell id="lN6Z3f6UjfHGIC5_T-Hi-3" value="" style="image;aspect=fixed;perimeter=ellipsePerimeter;html=1;align=center;shadow=0;dashed=0;fontColor=#4277BB;labelBackgroundColor=default;fontSize=12;spacingTop=3;image=img/lib/ibm/social/messaging.svg;" parent="1" vertex="1">
          <mxGeometry x="470" y="130" width="40" height="40" as="geometry" />
        </mxCell>
        <mxCell id="lN6Z3f6UjfHGIC5_T-Hi-5" value="" style="image;aspect=fixed;perimeter=ellipsePerimeter;html=1;align=center;shadow=0;dashed=0;fontColor=#4277BB;labelBackgroundColor=default;fontSize=12;spacingTop=3;image=img/lib/ibm/social/messaging.svg;" parent="1" vertex="1">
          <mxGeometry x="430" y="200" width="40" height="40" as="geometry" />
        </mxCell>
        <mxCell id="lN6Z3f6UjfHGIC5_T-Hi-6" value="" style="image;aspect=fixed;perimeter=ellipsePerimeter;html=1;align=center;shadow=0;dashed=0;fontColor=#4277BB;labelBackgroundColor=default;fontSize=12;spacingTop=3;image=img/lib/ibm/social/messaging.svg;" parent="1" vertex="1">
          <mxGeometry x="540" y="200" width="40" height="40" as="geometry" />
        </mxCell>
      </root>
    </mxGraphModel>
  </diagram>
</mxfile>
